<svg width="139" height="35" viewBox="0 0 139 35" fill="none" xmlns="http://www.w3.org/2000/svg">
<path d="M0.119999 34V0.735962H19.944L19.128 6.35196H7.992V15.184H17.688V20.8H7.992V34H0.119999Z" fill="black"/>
<path d="M35.5031 7.79196C36.4311 7.79196 37.2791 7.90396 38.0471 8.12796L36.8471 15.472C35.8871 15.248 35.1191 15.136 34.5431 15.136C33.0391 15.136 31.8871 15.664 31.0871 16.72C30.3191 17.744 29.7111 19.296 29.2631 21.376V34H21.6791V8.51196H28.3031L28.9271 13.456C29.5031 11.696 30.3671 10.32 31.5191 9.32796C32.7031 8.30396 34.0311 7.79196 35.5031 7.79196Z" fill="black"/>
<path d="M59.5132 26.608C59.5132 27.568 59.6413 28.272 59.8973 28.72C60.1853 29.168 60.6332 29.504 61.2412 29.728L59.6572 34.672C58.0892 34.544 56.8092 34.208 55.8172 33.664C54.8252 33.088 54.0572 32.192 53.5132 30.976C51.8492 33.536 49.2892 34.816 45.8332 34.816C43.3052 34.816 41.2892 34.08 39.7852 32.608C38.2812 31.136 37.5292 29.216 37.5292 26.848C37.5292 24.064 38.5532 21.936 40.6012 20.464C42.6493 18.992 45.6093 18.256 49.4813 18.256H52.0732V17.152C52.0732 15.648 51.7533 14.624 51.1133 14.08C50.4733 13.504 49.3533 13.216 47.7533 13.216C46.9213 13.216 45.9132 13.344 44.7292 13.6C43.5452 13.824 42.3292 14.144 41.0812 14.56L39.3532 9.56796C40.9532 8.95996 42.5852 8.49596 44.2492 8.17596C45.9452 7.85596 47.5132 7.69596 48.9532 7.69596C52.6012 7.69596 55.2732 8.44796 56.9692 9.95196C58.6652 11.456 59.5132 13.712 59.5132 16.72V26.608ZM48.0412 29.392C49.7692 29.392 51.1132 28.576 52.0732 26.944V22.432H50.2012C48.4732 22.432 47.1772 22.736 46.3132 23.344C45.4812 23.952 45.0653 24.896 45.0653 26.176C45.0653 27.2 45.3212 28 45.8332 28.576C46.3772 29.12 47.1132 29.392 48.0412 29.392Z" fill="black"/>
<path d="M80.4821 7.69596C82.6901 7.69596 84.4181 8.36796 85.6661 9.71196C86.9141 11.056 87.5381 12.944 87.5381 15.376V34H79.9541V16.672C79.9541 15.392 79.7461 14.512 79.3301 14.032C78.9461 13.52 78.3541 13.264 77.5541 13.264C76.0181 13.264 74.5461 14.368 73.1381 16.576V34H65.5541V8.51196H72.1781L72.7061 11.536C73.7941 10.256 74.9621 9.29596 76.2101 8.65596C77.4901 8.01596 78.9141 7.69596 80.4821 7.69596Z" fill="black"/>
<path d="M104.297 7.69596C106.057 7.69596 107.641 7.95196 109.049 8.46396C110.457 8.97596 111.785 9.75996 113.033 10.816L109.769 15.328C108.169 14.112 106.553 13.504 104.921 13.504C103.225 13.504 101.945 14.128 101.081 15.376C100.217 16.624 99.7853 18.64 99.7853 21.424C99.7853 24.112 100.217 26.016 101.081 27.136C101.945 28.256 103.193 28.816 104.825 28.816C105.689 28.816 106.473 28.688 107.177 28.432C107.881 28.144 108.729 27.696 109.721 27.088L113.033 31.792C110.505 33.808 107.641 34.816 104.441 34.816C101.849 34.816 99.6092 34.272 97.7212 33.184C95.8332 32.064 94.3773 30.512 93.3533 28.528C92.3293 26.512 91.8172 24.16 91.8172 21.472C91.8172 18.784 92.3293 16.4 93.3533 14.32C94.3773 12.24 95.8332 10.624 97.7212 9.47196C99.6092 8.28796 101.801 7.69596 104.297 7.69596Z" fill="black"/>
<path d="M126.329 7.69596C130.233 7.69596 133.288 8.89596 135.496 11.296C137.704 13.664 138.809 16.992 138.809 21.28C138.809 24 138.296 26.384 137.272 28.432C136.28 30.448 134.841 32.016 132.953 33.136C131.097 34.256 128.889 34.816 126.329 34.816C122.457 34.816 119.4 33.632 117.16 31.264C114.952 28.864 113.848 25.52 113.848 21.232C113.848 18.512 114.344 16.144 115.336 14.128C116.36 12.08 117.8 10.496 119.656 9.37596C121.544 8.25596 123.769 7.69596 126.329 7.69596ZM126.329 13.264C124.793 13.264 123.641 13.92 122.873 15.232C122.105 16.512 121.721 18.512 121.721 21.232C121.721 24.016 122.088 26.048 122.824 27.328C123.592 28.608 124.761 29.248 126.329 29.248C127.865 29.248 129.017 28.608 129.785 27.328C130.553 26.016 130.936 24 130.936 21.28C130.936 18.496 130.553 16.464 129.785 15.184C129.049 13.904 127.897 13.264 126.329 13.264Z" fill="black"/>
</svg>
